<mxfile host="Electron" modified="2023-11-20T16:59:51.399Z" agent="Mozilla/5.0 (Macintosh; Intel Mac OS X 10_15_7) AppleWebKit/537.36 (KHTML, like Gecko) draw.io/22.1.2 Chrome/114.0.5735.289 Electron/25.9.4 Safari/537.36" etag="c4uvx8w7I03GgxfLXX5V" version="22.1.2" type="device">
  <diagram id="C5RBs43oDa-KdzZeNtuy" name="Page-1">
    <mxGraphModel dx="2852" dy="2383" grid="1" gridSize="10" guides="1" tooltips="1" connect="1" arrows="1" fold="1" page="1" pageScale="1" pageWidth="827" pageHeight="1169" math="0" shadow="0">
      <root>
        <mxCell id="WIyWlLk6GJQsqaUBKTNV-0" />
        <mxCell id="WIyWlLk6GJQsqaUBKTNV-1" parent="WIyWlLk6GJQsqaUBKTNV-0" />
        <mxCell id="q5GOGIdOs2VIIM9N3BPO-0" value="«abstract»&lt;br style=&quot;border-color: var(--border-color); font-weight: 400;&quot;&gt;&lt;b style=&quot;border-color: var(--border-color);&quot;&gt;User&lt;/b&gt;" style="swimlane;fontStyle=1;align=center;verticalAlign=top;childLayout=stackLayout;horizontal=1;startSize=40;horizontalStack=0;resizeParent=1;resizeParentMax=0;resizeLast=0;collapsible=1;marginBottom=0;whiteSpace=wrap;html=1;labelBackgroundColor=none;fillColor=#F2CC8F;strokeColor=#E07A5F;fontColor=#393C56;" parent="WIyWlLk6GJQsqaUBKTNV-1" vertex="1">
          <mxGeometry x="360" y="-10" width="160" height="200" as="geometry" />
        </mxCell>
        <mxCell id="q5GOGIdOs2VIIM9N3BPO-1" value="UserID: int&lt;br&gt;Name&lt;br&gt;Address&lt;br&gt;Email&lt;br&gt;UserType" style="text;strokeColor=none;fillColor=none;align=left;verticalAlign=top;spacingLeft=4;spacingRight=4;overflow=hidden;rotatable=0;points=[[0,0.5],[1,0.5]];portConstraint=eastwest;whiteSpace=wrap;html=1;labelBackgroundColor=none;fontColor=#393C56;" parent="q5GOGIdOs2VIIM9N3BPO-0" vertex="1">
          <mxGeometry y="40" width="160" height="90" as="geometry" />
        </mxCell>
        <mxCell id="q5GOGIdOs2VIIM9N3BPO-2" value="" style="line;strokeWidth=1;fillColor=none;align=left;verticalAlign=middle;spacingTop=-1;spacingLeft=3;spacingRight=3;rotatable=0;labelPosition=right;points=[];portConstraint=eastwest;strokeColor=#E07A5F;labelBackgroundColor=none;fontColor=#393C56;" parent="q5GOGIdOs2VIIM9N3BPO-0" vertex="1">
          <mxGeometry y="130" width="160" height="8" as="geometry" />
        </mxCell>
        <mxCell id="q5GOGIdOs2VIIM9N3BPO-3" value="()" style="text;strokeColor=none;fillColor=none;align=left;verticalAlign=top;spacingLeft=4;spacingRight=4;overflow=hidden;rotatable=0;points=[[0,0.5],[1,0.5]];portConstraint=eastwest;whiteSpace=wrap;html=1;labelBackgroundColor=none;fontColor=#393C56;" parent="q5GOGIdOs2VIIM9N3BPO-0" vertex="1">
          <mxGeometry y="138" width="160" height="62" as="geometry" />
        </mxCell>
        <mxCell id="q5GOGIdOs2VIIM9N3BPO-5" value="Flight" style="swimlane;fontStyle=1;align=center;verticalAlign=top;childLayout=stackLayout;horizontal=1;startSize=26;horizontalStack=0;resizeParent=1;resizeParentMax=0;resizeLast=0;collapsible=1;marginBottom=0;whiteSpace=wrap;html=1;labelBackgroundColor=none;fillColor=#F2CC8F;strokeColor=#E07A5F;fontColor=#393C56;" parent="WIyWlLk6GJQsqaUBKTNV-1" vertex="1">
          <mxGeometry x="560" y="680" width="160" height="180" as="geometry">
            <mxRectangle x="370" y="560" width="70" height="30" as="alternateBounds" />
          </mxGeometry>
        </mxCell>
        <mxCell id="q5GOGIdOs2VIIM9N3BPO-6" value="FlightID&lt;br&gt;Origin&lt;br&gt;Destination&lt;br&gt;DepartureDateTime&lt;br&gt;AircraftID&lt;br&gt;SeatMapID&lt;br&gt;PassengerList" style="text;strokeColor=none;fillColor=none;align=left;verticalAlign=top;spacingLeft=4;spacingRight=4;overflow=hidden;rotatable=0;points=[[0,0.5],[1,0.5]];portConstraint=eastwest;whiteSpace=wrap;html=1;labelBackgroundColor=none;fontColor=#393C56;" parent="q5GOGIdOs2VIIM9N3BPO-5" vertex="1">
          <mxGeometry y="26" width="160" height="104" as="geometry" />
        </mxCell>
        <mxCell id="q5GOGIdOs2VIIM9N3BPO-7" value="" style="line;strokeWidth=1;fillColor=none;align=left;verticalAlign=middle;spacingTop=-1;spacingLeft=3;spacingRight=3;rotatable=0;labelPosition=right;points=[];portConstraint=eastwest;strokeColor=#E07A5F;labelBackgroundColor=none;fontColor=#393C56;" parent="q5GOGIdOs2VIIM9N3BPO-5" vertex="1">
          <mxGeometry y="130" width="160" height="8" as="geometry" />
        </mxCell>
        <mxCell id="q5GOGIdOs2VIIM9N3BPO-8" value="()" style="text;strokeColor=none;fillColor=none;align=left;verticalAlign=top;spacingLeft=4;spacingRight=4;overflow=hidden;rotatable=0;points=[[0,0.5],[1,0.5]];portConstraint=eastwest;whiteSpace=wrap;html=1;labelBackgroundColor=none;fontColor=#393C56;" parent="q5GOGIdOs2VIIM9N3BPO-5" vertex="1">
          <mxGeometry y="138" width="160" height="42" as="geometry" />
        </mxCell>
        <mxCell id="q5GOGIdOs2VIIM9N3BPO-9" value="SeatMap" style="swimlane;fontStyle=1;align=center;verticalAlign=top;childLayout=stackLayout;horizontal=1;startSize=26;horizontalStack=0;resizeParent=1;resizeParentMax=0;resizeLast=0;collapsible=1;marginBottom=0;whiteSpace=wrap;html=1;labelBackgroundColor=none;fillColor=#F2CC8F;strokeColor=#E07A5F;fontColor=#393C56;" parent="WIyWlLk6GJQsqaUBKTNV-1" vertex="1">
          <mxGeometry x="-40" y="680" width="160" height="180" as="geometry" />
        </mxCell>
        <mxCell id="q5GOGIdOs2VIIM9N3BPO-10" value="SeatMapID&lt;br&gt;FlightID&lt;br&gt;SeatType&lt;br&gt;Price" style="text;strokeColor=none;fillColor=none;align=left;verticalAlign=top;spacingLeft=4;spacingRight=4;overflow=hidden;rotatable=0;points=[[0,0.5],[1,0.5]];portConstraint=eastwest;whiteSpace=wrap;html=1;labelBackgroundColor=none;fontColor=#393C56;" parent="q5GOGIdOs2VIIM9N3BPO-9" vertex="1">
          <mxGeometry y="26" width="160" height="104" as="geometry" />
        </mxCell>
        <mxCell id="q5GOGIdOs2VIIM9N3BPO-11" value="" style="line;strokeWidth=1;fillColor=none;align=left;verticalAlign=middle;spacingTop=-1;spacingLeft=3;spacingRight=3;rotatable=0;labelPosition=right;points=[];portConstraint=eastwest;strokeColor=#E07A5F;labelBackgroundColor=none;fontColor=#393C56;" parent="q5GOGIdOs2VIIM9N3BPO-9" vertex="1">
          <mxGeometry y="130" width="160" height="8" as="geometry" />
        </mxCell>
        <mxCell id="q5GOGIdOs2VIIM9N3BPO-12" value="()" style="text;strokeColor=none;fillColor=none;align=left;verticalAlign=top;spacingLeft=4;spacingRight=4;overflow=hidden;rotatable=0;points=[[0,0.5],[1,0.5]];portConstraint=eastwest;whiteSpace=wrap;html=1;labelBackgroundColor=none;fontColor=#393C56;" parent="q5GOGIdOs2VIIM9N3BPO-9" vertex="1">
          <mxGeometry y="138" width="160" height="42" as="geometry" />
        </mxCell>
        <mxCell id="q5GOGIdOs2VIIM9N3BPO-13" value="Seat" style="swimlane;fontStyle=1;align=center;verticalAlign=top;childLayout=stackLayout;horizontal=1;startSize=26;horizontalStack=0;resizeParent=1;resizeParentMax=0;resizeLast=0;collapsible=1;marginBottom=0;whiteSpace=wrap;html=1;labelBackgroundColor=none;fillColor=#F2CC8F;strokeColor=#E07A5F;fontColor=#393C56;" parent="WIyWlLk6GJQsqaUBKTNV-1" vertex="1">
          <mxGeometry x="160" y="680" width="160" height="150" as="geometry" />
        </mxCell>
        <mxCell id="q5GOGIdOs2VIIM9N3BPO-14" value="SeatID&lt;br&gt;SeatMapID&lt;br&gt;Status" style="text;strokeColor=none;fillColor=none;align=left;verticalAlign=top;spacingLeft=4;spacingRight=4;overflow=hidden;rotatable=0;points=[[0,0.5],[1,0.5]];portConstraint=eastwest;whiteSpace=wrap;html=1;labelBackgroundColor=none;fontColor=#393C56;" parent="q5GOGIdOs2VIIM9N3BPO-13" vertex="1">
          <mxGeometry y="26" width="160" height="74" as="geometry" />
        </mxCell>
        <mxCell id="q5GOGIdOs2VIIM9N3BPO-15" value="" style="line;strokeWidth=1;fillColor=none;align=left;verticalAlign=middle;spacingTop=-1;spacingLeft=3;spacingRight=3;rotatable=0;labelPosition=right;points=[];portConstraint=eastwest;strokeColor=#E07A5F;labelBackgroundColor=none;fontColor=#393C56;" parent="q5GOGIdOs2VIIM9N3BPO-13" vertex="1">
          <mxGeometry y="100" width="160" height="8" as="geometry" />
        </mxCell>
        <mxCell id="q5GOGIdOs2VIIM9N3BPO-16" value="()" style="text;strokeColor=none;fillColor=none;align=left;verticalAlign=top;spacingLeft=4;spacingRight=4;overflow=hidden;rotatable=0;points=[[0,0.5],[1,0.5]];portConstraint=eastwest;whiteSpace=wrap;html=1;labelBackgroundColor=none;fontColor=#393C56;" parent="q5GOGIdOs2VIIM9N3BPO-13" vertex="1">
          <mxGeometry y="108" width="160" height="42" as="geometry" />
        </mxCell>
        <mxCell id="q5GOGIdOs2VIIM9N3BPO-17" value="Ticket" style="swimlane;fontStyle=1;align=center;verticalAlign=top;childLayout=stackLayout;horizontal=1;startSize=26;horizontalStack=0;resizeParent=1;resizeParentMax=0;resizeLast=0;collapsible=1;marginBottom=0;whiteSpace=wrap;html=1;labelBackgroundColor=none;fillColor=#F2CC8F;strokeColor=#E07A5F;fontColor=#393C56;" parent="WIyWlLk6GJQsqaUBKTNV-1" vertex="1">
          <mxGeometry x="360" y="680" width="160" height="180" as="geometry" />
        </mxCell>
        <mxCell id="q5GOGIdOs2VIIM9N3BPO-18" value="TicketID&lt;br&gt;FlightID&lt;br&gt;UserID&lt;br&gt;SeatID&lt;br&gt;InsuranceSelected&lt;br&gt;PaymentStatus" style="text;strokeColor=none;fillColor=none;align=left;verticalAlign=top;spacingLeft=4;spacingRight=4;overflow=hidden;rotatable=0;points=[[0,0.5],[1,0.5]];portConstraint=eastwest;whiteSpace=wrap;html=1;labelBackgroundColor=none;fontColor=#393C56;" parent="q5GOGIdOs2VIIM9N3BPO-17" vertex="1">
          <mxGeometry y="26" width="160" height="104" as="geometry" />
        </mxCell>
        <mxCell id="q5GOGIdOs2VIIM9N3BPO-19" value="" style="line;strokeWidth=1;fillColor=none;align=left;verticalAlign=middle;spacingTop=-1;spacingLeft=3;spacingRight=3;rotatable=0;labelPosition=right;points=[];portConstraint=eastwest;strokeColor=#E07A5F;labelBackgroundColor=none;fontColor=#393C56;" parent="q5GOGIdOs2VIIM9N3BPO-17" vertex="1">
          <mxGeometry y="130" width="160" height="8" as="geometry" />
        </mxCell>
        <mxCell id="q5GOGIdOs2VIIM9N3BPO-20" value="()" style="text;strokeColor=none;fillColor=none;align=left;verticalAlign=top;spacingLeft=4;spacingRight=4;overflow=hidden;rotatable=0;points=[[0,0.5],[1,0.5]];portConstraint=eastwest;whiteSpace=wrap;html=1;labelBackgroundColor=none;fontColor=#393C56;" parent="q5GOGIdOs2VIIM9N3BPO-17" vertex="1">
          <mxGeometry y="138" width="160" height="42" as="geometry" />
        </mxCell>
        <mxCell id="q5GOGIdOs2VIIM9N3BPO-21" value="EmailNotification" style="swimlane;fontStyle=1;align=center;verticalAlign=top;childLayout=stackLayout;horizontal=1;startSize=26;horizontalStack=0;resizeParent=1;resizeParentMax=0;resizeLast=0;collapsible=1;marginBottom=0;whiteSpace=wrap;html=1;labelBackgroundColor=none;fillColor=#F2CC8F;strokeColor=#E07A5F;fontColor=#393C56;" parent="WIyWlLk6GJQsqaUBKTNV-1" vertex="1">
          <mxGeometry x="-240" y="680" width="160" height="180" as="geometry" />
        </mxCell>
        <mxCell id="q5GOGIdOs2VIIM9N3BPO-22" value="EmailNotificationID&lt;br&gt;UserID&lt;br&gt;Content&lt;br&gt;SentDateTime" style="text;strokeColor=none;fillColor=none;align=left;verticalAlign=top;spacingLeft=4;spacingRight=4;overflow=hidden;rotatable=0;points=[[0,0.5],[1,0.5]];portConstraint=eastwest;whiteSpace=wrap;html=1;labelBackgroundColor=none;fontColor=#393C56;" parent="q5GOGIdOs2VIIM9N3BPO-21" vertex="1">
          <mxGeometry y="26" width="160" height="104" as="geometry" />
        </mxCell>
        <mxCell id="q5GOGIdOs2VIIM9N3BPO-23" value="" style="line;strokeWidth=1;fillColor=none;align=left;verticalAlign=middle;spacingTop=-1;spacingLeft=3;spacingRight=3;rotatable=0;labelPosition=right;points=[];portConstraint=eastwest;strokeColor=#E07A5F;labelBackgroundColor=none;fontColor=#393C56;" parent="q5GOGIdOs2VIIM9N3BPO-21" vertex="1">
          <mxGeometry y="130" width="160" height="8" as="geometry" />
        </mxCell>
        <mxCell id="q5GOGIdOs2VIIM9N3BPO-24" value="()" style="text;strokeColor=none;fillColor=none;align=left;verticalAlign=top;spacingLeft=4;spacingRight=4;overflow=hidden;rotatable=0;points=[[0,0.5],[1,0.5]];portConstraint=eastwest;whiteSpace=wrap;html=1;labelBackgroundColor=none;fontColor=#393C56;" parent="q5GOGIdOs2VIIM9N3BPO-21" vertex="1">
          <mxGeometry y="138" width="160" height="42" as="geometry" />
        </mxCell>
        <mxCell id="q5GOGIdOs2VIIM9N3BPO-25" value="CrewMember" style="swimlane;fontStyle=1;align=center;verticalAlign=top;childLayout=stackLayout;horizontal=1;startSize=26;horizontalStack=0;resizeParent=1;resizeParentMax=0;resizeLast=0;collapsible=1;marginBottom=0;whiteSpace=wrap;html=1;labelBackgroundColor=none;fillColor=#F2CC8F;strokeColor=#E07A5F;fontColor=#393C56;" parent="WIyWlLk6GJQsqaUBKTNV-1" vertex="1">
          <mxGeometry x="960" y="680" width="160" height="180" as="geometry" />
        </mxCell>
        <mxCell id="q5GOGIdOs2VIIM9N3BPO-26" value="CrewID&lt;br&gt;FlightID&lt;br&gt;Role&lt;br&gt;Name" style="text;strokeColor=none;fillColor=none;align=left;verticalAlign=top;spacingLeft=4;spacingRight=4;overflow=hidden;rotatable=0;points=[[0,0.5],[1,0.5]];portConstraint=eastwest;whiteSpace=wrap;html=1;labelBackgroundColor=none;fontColor=#393C56;" parent="q5GOGIdOs2VIIM9N3BPO-25" vertex="1">
          <mxGeometry y="26" width="160" height="104" as="geometry" />
        </mxCell>
        <mxCell id="q5GOGIdOs2VIIM9N3BPO-27" value="" style="line;strokeWidth=1;fillColor=none;align=left;verticalAlign=middle;spacingTop=-1;spacingLeft=3;spacingRight=3;rotatable=0;labelPosition=right;points=[];portConstraint=eastwest;strokeColor=#E07A5F;labelBackgroundColor=none;fontColor=#393C56;" parent="q5GOGIdOs2VIIM9N3BPO-25" vertex="1">
          <mxGeometry y="130" width="160" height="8" as="geometry" />
        </mxCell>
        <mxCell id="q5GOGIdOs2VIIM9N3BPO-28" value="()" style="text;strokeColor=none;fillColor=none;align=left;verticalAlign=top;spacingLeft=4;spacingRight=4;overflow=hidden;rotatable=0;points=[[0,0.5],[1,0.5]];portConstraint=eastwest;whiteSpace=wrap;html=1;labelBackgroundColor=none;fontColor=#393C56;" parent="q5GOGIdOs2VIIM9N3BPO-25" vertex="1">
          <mxGeometry y="138" width="160" height="42" as="geometry" />
        </mxCell>
        <mxCell id="q5GOGIdOs2VIIM9N3BPO-29" value="Aircraft" style="swimlane;fontStyle=1;align=center;verticalAlign=top;childLayout=stackLayout;horizontal=1;startSize=26;horizontalStack=0;resizeParent=1;resizeParentMax=0;resizeLast=0;collapsible=1;marginBottom=0;whiteSpace=wrap;html=1;labelBackgroundColor=none;fillColor=#F2CC8F;strokeColor=#E07A5F;fontColor=#393C56;" parent="WIyWlLk6GJQsqaUBKTNV-1" vertex="1">
          <mxGeometry x="760" y="680" width="160" height="180" as="geometry" />
        </mxCell>
        <mxCell id="q5GOGIdOs2VIIM9N3BPO-30" value="AircraftID&lt;br&gt;AircraftType RegistrationNumber" style="text;strokeColor=none;fillColor=none;align=left;verticalAlign=top;spacingLeft=4;spacingRight=4;overflow=hidden;rotatable=0;points=[[0,0.5],[1,0.5]];portConstraint=eastwest;whiteSpace=wrap;html=1;labelBackgroundColor=none;fontColor=#393C56;" parent="q5GOGIdOs2VIIM9N3BPO-29" vertex="1">
          <mxGeometry y="26" width="160" height="104" as="geometry" />
        </mxCell>
        <mxCell id="q5GOGIdOs2VIIM9N3BPO-31" value="" style="line;strokeWidth=1;fillColor=none;align=left;verticalAlign=middle;spacingTop=-1;spacingLeft=3;spacingRight=3;rotatable=0;labelPosition=right;points=[];portConstraint=eastwest;strokeColor=#E07A5F;labelBackgroundColor=none;fontColor=#393C56;" parent="q5GOGIdOs2VIIM9N3BPO-29" vertex="1">
          <mxGeometry y="130" width="160" height="8" as="geometry" />
        </mxCell>
        <mxCell id="q5GOGIdOs2VIIM9N3BPO-32" value="()" style="text;strokeColor=none;fillColor=none;align=left;verticalAlign=top;spacingLeft=4;spacingRight=4;overflow=hidden;rotatable=0;points=[[0,0.5],[1,0.5]];portConstraint=eastwest;whiteSpace=wrap;html=1;labelBackgroundColor=none;fontColor=#393C56;" parent="q5GOGIdOs2VIIM9N3BPO-29" vertex="1">
          <mxGeometry y="138" width="160" height="42" as="geometry" />
        </mxCell>
        <mxCell id="q5GOGIdOs2VIIM9N3BPO-45" value="Customer" style="swimlane;fontStyle=1;align=center;verticalAlign=top;childLayout=stackLayout;horizontal=1;startSize=30;horizontalStack=0;resizeParent=1;resizeParentMax=0;resizeLast=0;collapsible=1;marginBottom=0;whiteSpace=wrap;html=1;labelBackgroundColor=none;fillColor=#F2CC8F;strokeColor=#E07A5F;fontColor=#393C56;" parent="WIyWlLk6GJQsqaUBKTNV-1" vertex="1">
          <mxGeometry x="160" y="300" width="160" height="220" as="geometry" />
        </mxCell>
        <mxCell id="q5GOGIdOs2VIIM9N3BPO-46" value="ticket: Ticket" style="text;strokeColor=none;fillColor=none;align=left;verticalAlign=top;spacingLeft=4;spacingRight=4;overflow=hidden;rotatable=0;points=[[0,0.5],[1,0.5]];portConstraint=eastwest;whiteSpace=wrap;html=1;labelBackgroundColor=none;fontColor=#393C56;" parent="q5GOGIdOs2VIIM9N3BPO-45" vertex="1">
          <mxGeometry y="30" width="160" height="30" as="geometry" />
        </mxCell>
        <mxCell id="q5GOGIdOs2VIIM9N3BPO-47" value="" style="line;strokeWidth=1;fillColor=none;align=left;verticalAlign=middle;spacingTop=-1;spacingLeft=3;spacingRight=3;rotatable=0;labelPosition=right;points=[];portConstraint=eastwest;strokeColor=#E07A5F;labelBackgroundColor=none;fontColor=#393C56;" parent="q5GOGIdOs2VIIM9N3BPO-45" vertex="1">
          <mxGeometry y="60" width="160" height="8" as="geometry" />
        </mxCell>
        <mxCell id="q5GOGIdOs2VIIM9N3BPO-48" value="Browse_flight()&lt;br&gt;Select_flight()&lt;br&gt;Browse_seat_map()&lt;br&gt;Select_seat()&lt;br&gt;Select_insurance()&lt;br&gt;Make_payment()&lt;br&gt;Receive_ticket()&lt;br&gt;Cancel_flight()" style="text;strokeColor=none;fillColor=none;align=left;verticalAlign=top;spacingLeft=4;spacingRight=4;overflow=hidden;rotatable=0;points=[[0,0.5],[1,0.5]];portConstraint=eastwest;whiteSpace=wrap;html=1;labelBackgroundColor=none;fontColor=#393C56;" parent="q5GOGIdOs2VIIM9N3BPO-45" vertex="1">
          <mxGeometry y="68" width="160" height="152" as="geometry" />
        </mxCell>
        <mxCell id="q5GOGIdOs2VIIM9N3BPO-99" value="use" style="edgeStyle=orthogonalEdgeStyle;rounded=0;orthogonalLoop=1;jettySize=auto;html=1;entryX=0.75;entryY=0;entryDx=0;entryDy=0;endArrow=none;endFill=0;labelBackgroundColor=none;strokeColor=#E07A5F;fontColor=default;" parent="WIyWlLk6GJQsqaUBKTNV-1" source="q5GOGIdOs2VIIM9N3BPO-49" target="q5GOGIdOs2VIIM9N3BPO-17" edge="1">
          <mxGeometry relative="1" as="geometry">
            <Array as="points">
              <mxPoint x="440" y="550" />
              <mxPoint x="480" y="550" />
            </Array>
          </mxGeometry>
        </mxCell>
        <mxCell id="q5GOGIdOs2VIIM9N3BPO-100" value="use" style="edgeStyle=orthogonalEdgeStyle;rounded=0;orthogonalLoop=1;jettySize=auto;html=1;entryX=0.25;entryY=0;entryDx=0;entryDy=0;endArrow=none;endFill=0;labelBackgroundColor=none;strokeColor=#E07A5F;fontColor=default;" parent="WIyWlLk6GJQsqaUBKTNV-1" source="q5GOGIdOs2VIIM9N3BPO-49" target="q5GOGIdOs2VIIM9N3BPO-5" edge="1">
          <mxGeometry relative="1" as="geometry">
            <Array as="points">
              <mxPoint x="440" y="550" />
              <mxPoint x="600" y="550" />
            </Array>
          </mxGeometry>
        </mxCell>
        <mxCell id="q5GOGIdOs2VIIM9N3BPO-49" value="Airline Staff" style="swimlane;fontStyle=1;align=center;verticalAlign=top;childLayout=stackLayout;horizontal=1;startSize=30;horizontalStack=0;resizeParent=1;resizeParentMax=0;resizeLast=0;collapsible=1;marginBottom=0;whiteSpace=wrap;html=1;labelBackgroundColor=none;fillColor=#F2CC8F;strokeColor=#E07A5F;fontColor=#393C56;" parent="WIyWlLk6GJQsqaUBKTNV-1" vertex="1">
          <mxGeometry x="360" y="300" width="160" height="220" as="geometry" />
        </mxCell>
        <mxCell id="q5GOGIdOs2VIIM9N3BPO-50" value="&lt;br&gt;" style="text;strokeColor=none;fillColor=none;align=left;verticalAlign=top;spacingLeft=4;spacingRight=4;overflow=hidden;rotatable=0;points=[[0,0.5],[1,0.5]];portConstraint=eastwest;whiteSpace=wrap;html=1;labelBackgroundColor=none;fontColor=#393C56;" parent="q5GOGIdOs2VIIM9N3BPO-49" vertex="1">
          <mxGeometry y="30" width="160" height="30" as="geometry" />
        </mxCell>
        <mxCell id="q5GOGIdOs2VIIM9N3BPO-51" value="" style="line;strokeWidth=1;fillColor=none;align=left;verticalAlign=middle;spacingTop=-1;spacingLeft=3;spacingRight=3;rotatable=0;labelPosition=right;points=[];portConstraint=eastwest;strokeColor=#E07A5F;labelBackgroundColor=none;fontColor=#393C56;" parent="q5GOGIdOs2VIIM9N3BPO-49" vertex="1">
          <mxGeometry y="60" width="160" height="8" as="geometry" />
        </mxCell>
        <mxCell id="q5GOGIdOs2VIIM9N3BPO-52" value="Browse_flight()&lt;br&gt;Select_flight()&lt;br&gt;Browse_seat_map()&lt;br&gt;Select_seat()&lt;br&gt;Select_insurance()&lt;br&gt;Make_payment()&lt;br&gt;Receive_ticket()&lt;br&gt;Cancel_flight()&lt;br&gt;view_passenger_list()&lt;br&gt;" style="text;strokeColor=none;fillColor=none;align=left;verticalAlign=top;spacingLeft=4;spacingRight=4;overflow=hidden;rotatable=0;points=[[0,0.5],[1,0.5]];portConstraint=eastwest;whiteSpace=wrap;html=1;labelBackgroundColor=none;fontColor=#393C56;" parent="q5GOGIdOs2VIIM9N3BPO-49" vertex="1">
          <mxGeometry y="68" width="160" height="152" as="geometry" />
        </mxCell>
        <mxCell id="q5GOGIdOs2VIIM9N3BPO-98" value="use" style="edgeStyle=orthogonalEdgeStyle;rounded=0;orthogonalLoop=1;jettySize=auto;html=1;entryX=0.5;entryY=0;entryDx=0;entryDy=0;endArrow=none;endFill=0;labelBackgroundColor=none;strokeColor=#E07A5F;fontColor=default;" parent="WIyWlLk6GJQsqaUBKTNV-1" source="q5GOGIdOs2VIIM9N3BPO-53" target="q5GOGIdOs2VIIM9N3BPO-5" edge="1">
          <mxGeometry relative="1" as="geometry" />
        </mxCell>
        <mxCell id="q5GOGIdOs2VIIM9N3BPO-53" value="System Admin" style="swimlane;fontStyle=1;align=center;verticalAlign=top;childLayout=stackLayout;horizontal=1;startSize=30;horizontalStack=0;resizeParent=1;resizeParentMax=0;resizeLast=0;collapsible=1;marginBottom=0;whiteSpace=wrap;html=1;labelBackgroundColor=none;fillColor=#F2CC8F;strokeColor=#E07A5F;fontColor=#393C56;" parent="WIyWlLk6GJQsqaUBKTNV-1" vertex="1">
          <mxGeometry x="560" y="300" width="160" height="220" as="geometry" />
        </mxCell>
        <mxCell id="q5GOGIdOs2VIIM9N3BPO-54" value="&lt;br&gt;" style="text;strokeColor=none;fillColor=none;align=left;verticalAlign=top;spacingLeft=4;spacingRight=4;overflow=hidden;rotatable=0;points=[[0,0.5],[1,0.5]];portConstraint=eastwest;whiteSpace=wrap;html=1;labelBackgroundColor=none;fontColor=#393C56;" parent="q5GOGIdOs2VIIM9N3BPO-53" vertex="1">
          <mxGeometry y="30" width="160" height="30" as="geometry" />
        </mxCell>
        <mxCell id="q5GOGIdOs2VIIM9N3BPO-55" value="" style="line;strokeWidth=1;fillColor=none;align=left;verticalAlign=middle;spacingTop=-1;spacingLeft=3;spacingRight=3;rotatable=0;labelPosition=right;points=[];portConstraint=eastwest;strokeColor=#E07A5F;labelBackgroundColor=none;fontColor=#393C56;" parent="q5GOGIdOs2VIIM9N3BPO-53" vertex="1">
          <mxGeometry y="60" width="160" height="8" as="geometry" />
        </mxCell>
        <mxCell id="q5GOGIdOs2VIIM9N3BPO-56" value="modify_flight_detail()&lt;br&gt;manage_seat_type()&lt;br&gt;change_seat_price()&lt;br&gt;manage_crew()&lt;br&gt;manage_aircraft()&lt;br&gt;manage_user_perks()" style="text;strokeColor=none;fillColor=none;align=left;verticalAlign=top;spacingLeft=4;spacingRight=4;overflow=hidden;rotatable=0;points=[[0,0.5],[1,0.5]];portConstraint=eastwest;whiteSpace=wrap;html=1;labelBackgroundColor=none;fontColor=#393C56;" parent="q5GOGIdOs2VIIM9N3BPO-53" vertex="1">
          <mxGeometry y="68" width="160" height="152" as="geometry" />
        </mxCell>
        <mxCell id="q5GOGIdOs2VIIM9N3BPO-58" value="Extends" style="endArrow=block;endSize=16;endFill=0;html=1;rounded=0;exitX=0.5;exitY=0;exitDx=0;exitDy=0;entryX=0;entryY=0.5;entryDx=0;entryDy=0;labelBackgroundColor=none;strokeColor=#E07A5F;fontColor=default;" parent="WIyWlLk6GJQsqaUBKTNV-1" source="q5GOGIdOs2VIIM9N3BPO-45" target="q5GOGIdOs2VIIM9N3BPO-3" edge="1">
          <mxGeometry width="160" relative="1" as="geometry">
            <mxPoint x="360" y="590" as="sourcePoint" />
            <mxPoint x="520" y="590" as="targetPoint" />
          </mxGeometry>
        </mxCell>
        <mxCell id="q5GOGIdOs2VIIM9N3BPO-59" value="Extends" style="endArrow=block;endSize=16;endFill=0;html=1;rounded=0;exitX=0.5;exitY=0;exitDx=0;exitDy=0;entryX=0.5;entryY=1.032;entryDx=0;entryDy=0;entryPerimeter=0;labelBackgroundColor=none;strokeColor=#E07A5F;fontColor=default;" parent="WIyWlLk6GJQsqaUBKTNV-1" source="q5GOGIdOs2VIIM9N3BPO-49" target="q5GOGIdOs2VIIM9N3BPO-3" edge="1">
          <mxGeometry x="-0.2594" width="160" relative="1" as="geometry">
            <mxPoint x="360" y="590" as="sourcePoint" />
            <mxPoint x="540" y="200" as="targetPoint" />
            <mxPoint as="offset" />
          </mxGeometry>
        </mxCell>
        <mxCell id="q5GOGIdOs2VIIM9N3BPO-62" value="Extends" style="endArrow=block;endSize=16;endFill=0;html=1;rounded=0;exitX=0.5;exitY=0;exitDx=0;exitDy=0;entryX=1;entryY=0.5;entryDx=0;entryDy=0;labelBackgroundColor=none;strokeColor=#E07A5F;fontColor=default;" parent="WIyWlLk6GJQsqaUBKTNV-1" source="q5GOGIdOs2VIIM9N3BPO-53" target="q5GOGIdOs2VIIM9N3BPO-3" edge="1">
          <mxGeometry width="160" relative="1" as="geometry">
            <mxPoint x="360" y="190" as="sourcePoint" />
            <mxPoint x="520" y="190" as="targetPoint" />
          </mxGeometry>
        </mxCell>
        <mxCell id="q5GOGIdOs2VIIM9N3BPO-69" value="" style="endArrow=open;html=1;endSize=12;startArrow=diamondThin;startSize=14;startFill=0;edgeStyle=orthogonalEdgeStyle;rounded=0;exitX=0.5;exitY=1;exitDx=0;exitDy=0;exitPerimeter=0;entryX=0.239;entryY=1.031;entryDx=0;entryDy=0;entryPerimeter=0;labelBackgroundColor=none;strokeColor=#E07A5F;fontColor=default;" parent="WIyWlLk6GJQsqaUBKTNV-1" source="q5GOGIdOs2VIIM9N3BPO-12" target="q5GOGIdOs2VIIM9N3BPO-16" edge="1">
          <mxGeometry x="-0.0435" y="-50" relative="1" as="geometry">
            <mxPoint x="360" y="550" as="sourcePoint" />
            <mxPoint x="520" y="550" as="targetPoint" />
            <Array as="points">
              <mxPoint x="40" y="930" />
              <mxPoint x="198" y="930" />
            </Array>
            <mxPoint x="-50" y="50" as="offset" />
          </mxGeometry>
        </mxCell>
        <mxCell id="q5GOGIdOs2VIIM9N3BPO-70" value="0..n" style="edgeLabel;resizable=0;html=1;align=left;verticalAlign=top;labelBackgroundColor=none;fontColor=#393C56;" parent="q5GOGIdOs2VIIM9N3BPO-69" connectable="0" vertex="1">
          <mxGeometry x="-1" relative="1" as="geometry">
            <mxPoint y="10" as="offset" />
          </mxGeometry>
        </mxCell>
        <mxCell id="q5GOGIdOs2VIIM9N3BPO-71" value="1" style="edgeLabel;resizable=0;html=1;align=right;verticalAlign=top;labelBackgroundColor=none;fontColor=#393C56;" parent="q5GOGIdOs2VIIM9N3BPO-69" connectable="0" vertex="1">
          <mxGeometry x="1" relative="1" as="geometry">
            <mxPoint x="-8" y="19" as="offset" />
          </mxGeometry>
        </mxCell>
        <mxCell id="q5GOGIdOs2VIIM9N3BPO-80" value="Relation" style="endArrow=open;html=1;endSize=12;startArrow=diamondThin;startSize=14;startFill=0;edgeStyle=orthogonalEdgeStyle;rounded=0;entryX=0.5;entryY=0;entryDx=0;entryDy=0;exitX=0.506;exitY=1.013;exitDx=0;exitDy=0;exitPerimeter=0;labelBackgroundColor=none;strokeColor=#E07A5F;fontColor=default;" parent="WIyWlLk6GJQsqaUBKTNV-1" source="q5GOGIdOs2VIIM9N3BPO-48" target="q5GOGIdOs2VIIM9N3BPO-17" edge="1">
          <mxGeometry x="0.0027" relative="1" as="geometry">
            <mxPoint x="360" y="550" as="sourcePoint" />
            <mxPoint x="520" y="550" as="targetPoint" />
            <Array as="points">
              <mxPoint x="241" y="590" />
              <mxPoint x="440" y="590" />
            </Array>
            <mxPoint as="offset" />
          </mxGeometry>
        </mxCell>
        <mxCell id="q5GOGIdOs2VIIM9N3BPO-81" value="0..n" style="edgeLabel;resizable=0;html=1;align=left;verticalAlign=top;labelBackgroundColor=none;fontColor=#393C56;" parent="q5GOGIdOs2VIIM9N3BPO-80" connectable="0" vertex="1">
          <mxGeometry x="-1" relative="1" as="geometry" />
        </mxCell>
        <mxCell id="q5GOGIdOs2VIIM9N3BPO-82" value="1" style="edgeLabel;resizable=0;html=1;align=right;verticalAlign=top;labelBackgroundColor=none;fontColor=#393C56;" parent="q5GOGIdOs2VIIM9N3BPO-80" connectable="0" vertex="1">
          <mxGeometry x="1" relative="1" as="geometry">
            <mxPoint x="10" y="-40" as="offset" />
          </mxGeometry>
        </mxCell>
        <mxCell id="q5GOGIdOs2VIIM9N3BPO-86" value="Relation" style="endArrow=open;html=1;endSize=12;startArrow=diamondThin;startSize=14;startFill=0;edgeStyle=orthogonalEdgeStyle;rounded=0;entryX=0.494;entryY=1.048;entryDx=0;entryDy=0;entryPerimeter=0;exitX=0.493;exitY=1.024;exitDx=0;exitDy=0;exitPerimeter=0;labelBackgroundColor=none;strokeColor=#E07A5F;fontColor=default;" parent="WIyWlLk6GJQsqaUBKTNV-1" source="q5GOGIdOs2VIIM9N3BPO-20" target="q5GOGIdOs2VIIM9N3BPO-16" edge="1">
          <mxGeometry x="0.0625" relative="1" as="geometry">
            <mxPoint x="438" y="862" as="sourcePoint" />
            <mxPoint x="720" y="1068" as="targetPoint" />
            <Array as="points">
              <mxPoint x="439" y="978" />
              <mxPoint x="239" y="978" />
            </Array>
            <mxPoint as="offset" />
          </mxGeometry>
        </mxCell>
        <mxCell id="q5GOGIdOs2VIIM9N3BPO-87" value="0..n" style="edgeLabel;resizable=0;html=1;align=left;verticalAlign=top;labelBackgroundColor=none;fontColor=#393C56;" parent="q5GOGIdOs2VIIM9N3BPO-86" connectable="0" vertex="1">
          <mxGeometry x="-1" relative="1" as="geometry">
            <mxPoint y="37" as="offset" />
          </mxGeometry>
        </mxCell>
        <mxCell id="q5GOGIdOs2VIIM9N3BPO-88" value="1" style="edgeLabel;resizable=0;html=1;align=right;verticalAlign=top;labelBackgroundColor=none;fontColor=#393C56;" parent="q5GOGIdOs2VIIM9N3BPO-86" connectable="0" vertex="1">
          <mxGeometry x="1" relative="1" as="geometry">
            <mxPoint x="10" y="18" as="offset" />
          </mxGeometry>
        </mxCell>
        <mxCell id="q5GOGIdOs2VIIM9N3BPO-92" value="Relation" style="endArrow=open;html=1;endSize=12;startArrow=diamondThin;startSize=14;startFill=0;edgeStyle=orthogonalEdgeStyle;rounded=0;entryX=0.821;entryY=1.065;entryDx=0;entryDy=0;entryPerimeter=0;exitX=0.754;exitY=1.078;exitDx=0;exitDy=0;exitPerimeter=0;labelBackgroundColor=none;strokeColor=#E07A5F;fontColor=default;" parent="WIyWlLk6GJQsqaUBKTNV-1" source="q5GOGIdOs2VIIM9N3BPO-8" target="q5GOGIdOs2VIIM9N3BPO-32" edge="1">
          <mxGeometry x="0.0625" relative="1" as="geometry">
            <mxPoint x="690.0000000000001" y="859.9980000000003" as="sourcePoint" />
            <mxPoint x="891.7599999999999" y="861.1319999999998" as="targetPoint" />
            <Array as="points">
              <mxPoint x="681" y="1039" />
              <mxPoint x="891" y="1039" />
            </Array>
            <mxPoint as="offset" />
          </mxGeometry>
        </mxCell>
        <mxCell id="q5GOGIdOs2VIIM9N3BPO-93" value="0..n" style="edgeLabel;resizable=0;html=1;align=left;verticalAlign=top;labelBackgroundColor=none;fontColor=#393C56;" parent="q5GOGIdOs2VIIM9N3BPO-92" connectable="0" vertex="1">
          <mxGeometry x="-1" relative="1" as="geometry">
            <mxPoint y="37" as="offset" />
          </mxGeometry>
        </mxCell>
        <mxCell id="q5GOGIdOs2VIIM9N3BPO-94" value="1" style="edgeLabel;resizable=0;html=1;align=right;verticalAlign=top;labelBackgroundColor=none;fontColor=#393C56;" parent="q5GOGIdOs2VIIM9N3BPO-92" connectable="0" vertex="1">
          <mxGeometry x="1" relative="1" as="geometry">
            <mxPoint x="10" y="18" as="offset" />
          </mxGeometry>
        </mxCell>
        <mxCell id="q5GOGIdOs2VIIM9N3BPO-95" value="Relation" style="endArrow=open;html=1;endSize=12;startArrow=diamondThin;startSize=14;startFill=0;edgeStyle=orthogonalEdgeStyle;rounded=0;exitX=0.254;exitY=1.078;exitDx=0;exitDy=0;exitPerimeter=0;entryX=0.25;entryY=1;entryDx=0;entryDy=0;labelBackgroundColor=none;strokeColor=#E07A5F;fontColor=default;" parent="WIyWlLk6GJQsqaUBKTNV-1" source="q5GOGIdOs2VIIM9N3BPO-8" target="q5GOGIdOs2VIIM9N3BPO-9" edge="1">
          <mxGeometry relative="1" as="geometry">
            <mxPoint x="360" y="880" as="sourcePoint" />
            <mxPoint x="520" y="880" as="targetPoint" />
            <Array as="points">
              <mxPoint x="601" y="1040" />
              <mxPoint y="1040" />
            </Array>
          </mxGeometry>
        </mxCell>
        <mxCell id="q5GOGIdOs2VIIM9N3BPO-96" value="0..n" style="edgeLabel;resizable=0;html=1;align=left;verticalAlign=top;labelBackgroundColor=none;fontColor=#393C56;" parent="q5GOGIdOs2VIIM9N3BPO-95" connectable="0" vertex="1">
          <mxGeometry x="-1" relative="1" as="geometry">
            <mxPoint y="7" as="offset" />
          </mxGeometry>
        </mxCell>
        <mxCell id="q5GOGIdOs2VIIM9N3BPO-97" value="1" style="edgeLabel;resizable=0;html=1;align=right;verticalAlign=top;labelBackgroundColor=none;fontColor=#393C56;" parent="q5GOGIdOs2VIIM9N3BPO-95" connectable="0" vertex="1">
          <mxGeometry x="1" relative="1" as="geometry">
            <mxPoint x="-10" y="10" as="offset" />
          </mxGeometry>
        </mxCell>
        <mxCell id="q5GOGIdOs2VIIM9N3BPO-101" value="use" style="edgeStyle=orthogonalEdgeStyle;rounded=0;orthogonalLoop=1;jettySize=auto;html=1;entryX=0.5;entryY=0;entryDx=0;entryDy=0;endArrow=none;endFill=0;labelBackgroundColor=none;strokeColor=#E07A5F;fontColor=default;" parent="WIyWlLk6GJQsqaUBKTNV-1" source="q5GOGIdOs2VIIM9N3BPO-56" target="q5GOGIdOs2VIIM9N3BPO-29" edge="1">
          <mxGeometry relative="1" as="geometry" />
        </mxCell>
        <mxCell id="q5GOGIdOs2VIIM9N3BPO-102" value="use" style="edgeStyle=orthogonalEdgeStyle;rounded=0;orthogonalLoop=1;jettySize=auto;html=1;endArrow=none;endFill=0;labelBackgroundColor=none;strokeColor=#E07A5F;fontColor=default;" parent="WIyWlLk6GJQsqaUBKTNV-1" source="q5GOGIdOs2VIIM9N3BPO-56" target="q5GOGIdOs2VIIM9N3BPO-25" edge="1">
          <mxGeometry relative="1" as="geometry" />
        </mxCell>
        <mxCell id="q5GOGIdOs2VIIM9N3BPO-103" value="use" style="edgeStyle=orthogonalEdgeStyle;rounded=0;orthogonalLoop=1;jettySize=auto;html=1;entryX=0.5;entryY=0;entryDx=0;entryDy=0;endArrow=none;endFill=0;labelBackgroundColor=none;strokeColor=#E07A5F;fontColor=default;" parent="WIyWlLk6GJQsqaUBKTNV-1" source="q5GOGIdOs2VIIM9N3BPO-18" target="q5GOGIdOs2VIIM9N3BPO-21" edge="1">
          <mxGeometry relative="1" as="geometry">
            <Array as="points">
              <mxPoint x="340" y="758" />
              <mxPoint x="340" y="660" />
              <mxPoint x="-160" y="660" />
            </Array>
          </mxGeometry>
        </mxCell>
      </root>
    </mxGraphModel>
  </diagram>
</mxfile>
